/* XPM */
static char *_0681b2ba33a4630918d3d9a994d9674F9v8CTVx3veg4EXG[] = {
/* columns rows colors chars-per-pixel */
"16 16 9 1 ",
"  c None",
". c #141B1B",
"X c #3B3643",
"o c #5F7160",
"O c #D14B34",
"+ c #EF914F",
"@ c #F1C471",
"# c #79B8CE",
"$ c #F2EAF1",
/* pixels */
"                ",
"    ........    ",
"   .#$$$$$$#.   ",
"  .##$$$$$$##.  ",
"  .###$$$$###.  ",
"  .#@######@#.  ",
" .o#@@@@@@@@#o. ",
" .#o#@@@@@@#o#. ",
".###........###.",
".#o#........#o#.",
".##o#..##..#o##.",
" .##.o####o.##. ",
"  ..XXooooXX..  ",
" .OO##XXXX##OO. ",
" .++.XXXXXX.++. ",
"  ..ooo..ooo..  "
};
