/* XPM */
static char *bot_right1682511206[] = {
/* columns rows colors chars-per-pixel */
"32 32 47 1 ",
"  c None",
". c #57341F",
"X c #583420",
"o c #583520",
"O c #583621",
"+ c #593622",
"@ c #5A3723",
"# c #5B3823",
"$ c #5C3925",
"% c #5C3A26",
"& c #5E3B27",
"* c #5E3C27",
"= c #5E3D28",
"- c #5E3D29",
"; c #5F3D29",
": c #603E2A",
"> c #603F2A",
", c #613F2A",
"< c #613F2B",
"1 c #613F2C",
"2 c #62402C",
"3 c #615A4F",
"4 c #645E52",
"5 c #656054",
"6 c #666155",
"7 c #676256",
"8 c #686357",
"9 c #79776C",
"0 c #7B766E",
"q c #827F76",
"w c #878579",
"e c #8B897C",
"r c #8C8A7D",
"t c #8C8B7E",
"y c #8D8B7F",
"u c #8D8B80",
"i c #8E8C81",
"p c #959389",
"a c #96948B",
"s c #98968E",
"d c #9A988F",
"f c #9B9891",
"g c #9B9991",
"h c #9C9991",
"j c #9D9A92",
"k c #A3A096",
"l c #A2A09A",
/* pixels */
"wwwwwwwwwwwwwwwwwwwwwwwwwwwws74<",
"wwwwwwwwwwwwwwwwwwwwwwwwwwwws742",
"wwwwwwwwwwwwwwwwwwwwwwwwwwwws742",
"wwwwwwwwwwwwwwwwwwwwwwwwwwwws741",
"wwwwwwwwwwwwwwwwwwwwwwwwwiiis741",
"wwwwwwwwwwwwwwwwwwwwwwwwwiiis741",
"wwwwwwwwwwwwwwwwwwwwwwwwwiiis84<",
"wwwwwwwwwwwwwwwwwwwwwwwwwwwis84<",
"wwwwwwwwwwwwwwwwwwwwwwwwwwwis84<",
"wwwwwwwwwwwwwwwwwwwwwwwwwwwia84<",
"wwwwwwwwwwwwwwwwwwwwwwwwwwwis84<",
"eewwwwwwwwwwwwwwwwwwwwwwwwwis84<",
"eewwwwwwwwwwwwwwwwwwwwwwwwwws84<",
"eeeeewwwwwwwwwwwwwwwwwwwwwwws84;",
"eeeeewwwwwwwwwwwwwwwwwwyyywws84<",
"wweeewwwwwwwwwwwwwwwwwwtyiwws84*",
"wwwwwwwwwwwwwwwwwwwwwwwwetwws84;",
"wwwwwwwwwwwwwwwwwwwwwwwwwwwws84;",
"wwwwwwwwwwwwwwwwwwwwwwwwwwwws84;",
"wwwwwwwwwwwwwwwwwwwwwwwwwwwws84*",
"wwwwwwwwwwwwwwwwwwwwwwwwwwiik74*",
"wwwwwwwwwwwwwwwwwwwwwwwwwwiil74%",
"wwwwwwwwwwwwwwwwwwwwwwwwwiiil54%",
"wwwwwwwwwwwwwwwwwwwwwwwwwiiil54@",
"wwwwwwwwwwwwwwwwwwwwwiiwwwiil44@",
"wwwwwwwwwwwwwwwwwwwwwiiiiiiil43@",
"wwwwwwwwwwwwwwwwwwwiiiiiiiil933.",
"sdgfffffffggjjjjjjkkkkkkkll9993.",
"qqqqqqq000000000000000000qqk999@",
"qqqqqq00000000000000000qqqqqk99.",
"000qqq00000000000000000qqqqqqp. ",
"..............................  "
};
