/* XPM */
static char *bot_left1682511206[] = {
/* columns rows colors chars-per-pixel */
"32 32 66 1 ",
"  c None",
". c #57331E",
"X c #57341F",
"o c #58341F",
"O c #583420",
"+ c #593520",
"@ c #593621",
"# c #593723",
"$ c #5A3722",
"% c #5B3723",
"& c #5B3824",
"* c #5C3924",
"= c #5C3925",
"- c #5C3A25",
"; c #5D3B27",
": c #5E3C28",
"> c #5F3D29",
", c #603E2A",
"< c #603F2A",
"1 c #613F2A",
"2 c #613F2B",
"3 c #623F2C",
"4 c #62402C",
"5 c #62402D",
"6 c #6C685D",
"7 c #747065",
"8 c #7B766E",
"9 c #7F7C72",
"0 c #827F76",
"q c #878579",
"w c #8B897E",
"e c #8B8980",
"r c #8D8B81",
"t c #8D8B82",
"y c #8E8C81",
"u c #8E8C82",
"i c #8E8C83",
"p c #8F8D83",
"a c #918D84",
"s c #94928A",
"d c #96948C",
"f c #97948C",
"g c #97958C",
"h c #98968D",
"j c #98968E",
"k c #99968E",
"l c #99978E",
"z c #99978F",
"x c #9A978F",
"c c #9A988F",
"v c #9B9991",
"b c #9C9991",
"n c #9C9992",
"m c #9C9A92",
"M c #9D9B93",
"N c #9E9B93",
"B c #9E9C93",
"V c #9F9C93",
"C c #9F9C94",
"Z c #A09D95",
"A c #A19E95",
"S c #A29F95",
"D c #A39F96",
"F c #A3A096",
"G c #A4A097",
"H c #A2A09A",
/* pixels */
"577dqqqqqqqqqqqqqqqqqqqqqqqqqqqq",
"577dqqqqqqqqqqqqqqqqqqqqqqqqqqqq",
"377dqqqqqqqqqqqqqqqqqqqqqqqqqqqq",
"377dqqqqqqqqqqqqqqqqqqqqqqqqqqqq",
"377Hqqqqqqqqqqqqqqqqqqqqqqqqqqqq",
"377Hqqqqqqqqqqqqqqqqqqqqqqqqqqqq",
">77dqqqqqqqqqqqqqqqqqqqqqqqqqqqq",
"<77dqqqqqqqqqqqqqqqqqqqqqqqqqqqq",
">77dqqqqqqqqqqqqqqqqqqqqqqqqqqqq",
">99cqqqqqqqqqqqqqqqqqqqqqqqqqqqq",
";99cqqqqqqqqqqqqqqqqqqqqqqqqqqqq",
";99cqqqqqqqqqqqqqqqqqqqqqqqqqqqq",
"*99cqqqqqqqqqqqqqqqqqqqqqqqqqqqq",
"*97vqqqqqqqqqqqqqqqqqqqqqqqqqqqq",
"-77vyyqqqqqqqqqqqqqqqqqqqqqqqqqq",
"-77vyyqqqqqqqqqqqqqqqqqqqqqqqqqq",
"-77cwawpqqqqqqqqqqqqqqqqqqqqqqqq",
"-77Bawppqqqqqqqqqqqqqqqqqqqqqqqq",
"o77Swawqqqqqqqqqqqqqqqqqqqqqqqqq",
"-77Fawpqqqqqqqqqqqqqqqqqqqqqqqqq",
"o77Fwqqqqqqqqqqqqqqqqqqqqqqqqqqq",
"o77Fpqqqqqqqqqqqqqqqqqqqqqqqqqqq",
"o77Fpqqqqqqqqqwaqqqqqqqqqqqqqqqq",
"o77Fwpwqqqqqqqawqqqqqqqqqqqqqqqq",
"o76Fppwpqqqqqqqqqqqqqqqqqqqqqqqq",
"o76Fwppwyyyyyqqqqqqqqqqqqqqqqqqq",
"o66pFppwayyyyqqqqqqqqqqqqqqqqqqq",
"X6wppGGGFFFZFZZZnZZZnnvhhdggfffg",
"Xwtycq98888888888888888888888888",
"Xwtgq99q888888888888888888888888",
" Xs00000888888888888888888888888",
"  #################*#########Xo."
};
