/* XPM */
static char *bot_31682511206[] = {
/* columns rows colors chars-per-pixel */
"32 32 78 1 ",
"  c None",
". c #57331E",
"X c #57341F",
"o c #58341F",
"O c #583520",
"+ c #593520",
"@ c #593521",
"# c #593621",
"$ c #593622",
"% c #583722",
"& c #5A3722",
"* c #5B3823",
"= c #5B3824",
"- c #5C3924",
"; c #5C3925",
": c #5C3A25",
"> c #5C3A26",
", c #5D3A26",
"< c #5D3B26",
"1 c #5D3B27",
"2 c #5D3C27",
"3 c #5E3C28",
"4 c #5F3C29",
"5 c #5F3D29",
"6 c #5F3E2A",
"7 c #603E2A",
"8 c #603F2A",
"9 c #613F2A",
"0 c #613F2B",
"q c #623F2B",
"w c #613F2C",
"e c #623F2C",
"r c #62402C",
"t c #615A4F",
"y c #645E52",
"u c #747065",
"i c #757166",
"p c #757267",
"a c #777469",
"s c #787469",
"d c #78746A",
"f c #79756B",
"g c #79776C",
"h c #7A766C",
"j c #7B766E",
"k c #7B7770",
"l c #7C7871",
"z c #7D7A70",
"x c #827E76",
"c c #827F76",
"v c #878579",
"b c #8B897E",
"n c #8B8980",
"m c #8D8B80",
"M c #8D8B81",
"N c #8D8B82",
"B c #8E8C81",
"V c #8E8C82",
"C c #8E8C83",
"Z c #8F8D83",
"A c #918D84",
"S c #96948C",
"D c #97958C",
"F c #98968D",
"G c #98968E",
"H c #99978E",
"J c #99978F",
"K c #9A988F",
"L c #9B9991",
"P c #9C9991",
"I c #9C9A92",
"U c #9D9B93",
"Y c #9D9B94",
"T c #9F9C94",
"R c #9F9D96",
"E c #A29F95",
"W c #A2A09A",
"Q c #A4A199",
/* pixels */
"rupSVVvvvvvvvvvvvvvvvvvvvvvvFyy2",
"ruuDVVvvvvvvvvvvvvvvvvvvvvvvFyy2",
"ruuDAbVvvvvvvvvvvvvvvvvvvvvvFyy<",
"wuuDbAbvvvvvvvvvvvvvvvvvvvvvFyy<",
"rupDAbZvvvvvvvvvvvvvvvvvvvvvFyy<",
"ruaDvvvvvvvvvvvvvvvvvvvvvvvvLyy<",
"ruaDvvvvvvvvvvvvvvvvvvvvvvvvFyy<",
"6uaFvvvvvvvvvvvvvvvvvvvvvvvvFyy<",
"ruaDvvvvvvvvvvvvvvvvvvvbVvvvFyy<",
"8uaFvvvvvvvvvvvvvvvvvvvAVvvvFyy,",
"8uaFvvvvvvvvvvvvvvvvvvvvvvvvGyy,",
"8uaKvvvvvvvvvvvvvvvvvvvvvvvvGyy,",
"8upLVVvvvvvvvvvvvvvvvvvvvAVVGyy,",
"8usLbVvvvvvvvvvvvvvvvvvvvbVbGyy,",
"8usLAvvvvvvvvvvvvvvvvvvvvbVVFyy,",
"8usPbvvvvvvvvvvvvvvvvvvvvvvVLyy$",
"7usIBvvvvvvvvvvvvvvvvvvvvvvAIyy*",
"<usIBvvvvvvvvvvvvvvvvvvvvvvvUyy*",
"<usIBBBvvvvvvvvvvvvvvvvvvvvvTyyo",
"2ugIBBBvvvvvvvvvvvvvvvvvvvvvTyyo",
"<usIBBBvvvvvvvvvvvvvvvvvvvvvTyy*",
"<usYBBBBbvvvvvvvvvvvvvvvvvvBWyyO",
";usEBBBBBvvvvvvvvvvvvvvvvvBBWyyO",
"$ujWBBBBBvvvvvvvvvvvvvvvvvBBWytX",
"$ujWBBBBBvvvvvvvvvvvvvvvvvBBWyto",
"$ujWBBBBBBBvvvvvvvvvvvvbBBBBWtto",
";ulBWBBBbBBbBvvvvvvvvvvVbBBWgttX",
"OunBBWWEEEQQQUEQQQQQQQQQWQQgggtX",
"OnCCWckjjjjjjjjjjjlljjjjkjcWggg.",
"OnNEvzccjjjjjjjjjjjjjjjjccccWgg.",
" OEcccccjjjjjjjjjjjjjjjccccccWX ",
"  O.O.OOXXXXXXXXXXXoXXXXX.XXXX  "
};
