/* XPM */
static char *bot_11682511206[] = {
/* columns rows colors chars-per-pixel */
"32 32 23 1 ",
"  c #878579",
". c #8E8C81",
"X c #A09E98",
"o c #9C9A93",
"O c #96938B",
"+ c #95928A",
"@ c #949189",
"# c #928E87",
"$ c #938F88",
"% c #9B9891",
"& c #9A9790",
"* c #95938B",
"= c #99978F",
"- c #9B9991",
"; c #9C9992",
": c #9C9A92",
"> c #9D9B93",
", c #9F9D95",
"< c #A2A09A",
"1 c #827F76",
"2 c #7B766E",
"3 c #57341F",
"4 c white",
/* pixels */
"                                ",
"                                ",
"                                ",
"                                ",
"                                ",
"                                ",
"                                ",
"                      ..        ",
"                      ..        ",
"                          ...   ",
"                          ....  ",
"                           ...  ",
"                           ...  ",
"                                ",
"                                ",
"                                ",
"                                ",
"                                ",
"                                ",
"                                ",
"                                ",
"                                ",
"                                ",
"           ...                  ",
"           ....               ..",
"..      ..........          ....",
"..      ..........          ....",
"XooooO+@@#$$@%&&&&@*=-;::>,,,,<<",
"12222222222221111122222222222222",
"22222222222221111112222222222222",
"22222222222222222112222222222222",
"33333333333333333333333333333333"
};
