/* XPM */
static char *left_right1682511712[] = {
/* columns rows colors chars-per-pixel */
"32 32 35 1 ",
"  c #64412E",
". c #747065",
"X c #787469",
"o c #95938B",
"O c #878579",
"+ c #98968E",
"@ c #645E52",
"# c #603E2A",
"$ c #777469",
"% c #63412E",
"& c #777369",
"* c #5F3E2A",
"= c #64422F",
"- c #5F3D29",
"; c #63422E",
": c #5E3C28",
"> c #767268",
", c #767267",
"< c #5D3B27",
"1 c #757167",
"2 c #5C3A25",
"3 c #757166",
"4 c #5B3924",
"5 c #5B3824",
"6 c #95938A",
"7 c #5C3925",
"8 c #63402D",
"9 c #62412D",
"0 c #5C3A26",
"q c #5D3A26",
"w c #62402C",
"e c #96948C",
"r c #62402D",
"t c #97958C",
"y c white",
/* pixels */
" .XoOOOOOOOOOOOOOOOOOOOOOOOO+@@#",
" .$oOOOOOOOOOOOOOOOOOOOOOOOO+@@#",
"%.&oOOOOOOOOOOOOOOOOOOOOOOOO+@@#",
"%.&oOOOOOOOOOOOOOOOOOOOOOOOO+@@*",
"=.&oOOOOOOOOOOOOOOOOOOOOOOOO+@@-",
";.&oOOOOOOOOOOOOOOOOOOOOOOOO+@@-",
";.&oOOOOOOOOOOOOOOOOOOOOOOOO+@@-",
";.&oOOOOOOOOOOOOOOOOOOOOOOOO+@@-",
";.&oOOOOOOOOOOOOOOOOOOOOOOOO+@@:",
";.>oOOOOOOOOOOOOOOOOOOOOOOOO+@@:",
"%.,oOOOOOOOOOOOOOOOOOOOOOOOO+@@<",
"%.1oOOOOOOOOOOOOOOOOOOOOOOOO+@@2",
"%.3oOOOOOOOOOOOOOOOOOOOOOOOO+@@4",
"%.3oOOOOOOOOOOOOOOOOOOOOOOOO+@@5",
"%.3oOOOOOOOOOOOOOOOOOOOOOOOO+@@5",
"%.3oOOOOOOOOOOOOOOOOOOOOOOOO+@@5",
"%.3oOOOOOOOOOOOOOOOOOOOOOOOO+@@4",
"%.3oOOOOOOOOOOOOOOOOOOOOOOOO+@@4",
"%.36OOOOOOOOOOOOOOOOOOOOOOOO+@@7",
"%.3oOOOOOOOOOOOOOOOOOOOOOOOO+@@7",
"%.3oOOOOOOOOOOOOOOOOOOOOOOOO+@@7",
"%.3oOOOOOOOOOOOOOOOOOOOOOOOO+@@7",
"8.3oOOOOOOOOOOOOOOOOOOOOOOOO+@@2",
"8.3oOOOOOOOOOOOOOOOOOOOOOOOO+@@2",
"8.3oOOOOOOOOOOOOOOOOOOOOOOOO+@@2",
"9.3oOOOOOOOOOOOOOOOOOOOOOOOO+@@0",
"9.3oOOOOOOOOOOOOOOOOOOOOOOOO+@@q",
"w.3eOOOOOOOOOOOOOOOOOOOOOOOO+@@q",
"r.3eOOOOOOOOOOOOOOOOOOOOOOOO+@@q",
"w.3tOOOOOOOOOOOOOOOOOOOOOOOO+@@q",
"w.3tOOOOOOOOOOOOOOOOOOOOOOOO+@@q",
"r.3eOOOOOOOOOOOOOOOOOOOOOOOO+@@q"
};
