/* XPM */
static char *left_31682511206[] = {
/* columns rows colors chars-per-pixel */
"32 32 59 1 ",
"  c None",
". c #57331E",
"X c #58341F",
"o c #573420",
"O c #573520",
"+ c #583420",
"@ c #583520",
"# c #593621",
"$ c #5A3723",
"% c #5B3924",
"& c #5C3925",
"* c #5C3A25",
"= c #5D3B26",
"- c #5E3B27",
"; c #5E3C28",
": c #5E3D29",
"> c #5F3D29",
", c #5E3E2A",
"< c #5F3F2A",
"1 c #603F2B",
"2 c #61402D",
"3 c #62422E",
"4 c #63422F",
"5 c #63432F",
"6 c #634330",
"7 c #6C685D",
"8 c #747065",
"9 c #777469",
"0 c #787469",
"q c #78746A",
"w c #7B766E",
"e c #7F7C72",
"r c #807E74",
"t c #827F76",
"y c #878579",
"u c #8B897E",
"i c #8B8980",
"p c #8D8B81",
"a c #8D8B82",
"s c #8E8C81",
"d c #8E8C83",
"f c #8F8D83",
"g c #918D84",
"h c #918F85",
"j c #94928A",
"k c #97958D",
"l c #98968E",
"z c #99968E",
"x c #99978E",
"c c #9A978F",
"v c #9A988F",
"b c #9C9992",
"n c #9C9A92",
"m c #9D9B93",
"M c #9E9B93",
"N c #9F9C94",
"B c #A19E95",
"V c #A29F95",
"C c #A2A09A",
/* pixels */
"   ooXX#***=2<222555555555555555",
"  #Cdddduhuhuuhuuuyyyyyyyuuuhuuy",
" #9Cugudgugyyhuhuyyyyyyyyyyhuuuy",
"#80Vhuyyuguyyyyyyyyyyyyyyyyyuyyy",
"=89Cuyyyyduyyyyyyyyyyyyyyyyyyyyy",
"=89vhyyyyyyyyyyyyyyyyyyyyyyyyyyy",
"=80vuyyyyyyyyyyyyyyyyyyyyyyyyyyy",
"180vyyyyyyyyyyyyyyyyyyyyyyyyyyyy",
"=80vyyyyyyyyyyyyyyyyyyyyyyyyyyyy",
"=89vyyyyyyyyyyyyyyyyyyyyyyyyyyyy",
"=89xyyyyyyyyyyyyyyyyyyyyyyyyyyyy",
"189xyyyyyyyyyyyyyyyyyyyyyyyyyyyy",
"=80xyyyyyyyyyyyyyyyyyyyyyyyyyyyy",
"1r8xyyyyyyyyyyyyyyyyyyyyyyyyyyyy",
"=rrxyyyyyyyyyyyyyyyyyyyyyyyyyyyy",
"=rrxyyyyyyyyyyyyyyyyyyyyyyyyyyyy",
"Xeyxyyyyyyyyyyyyyyyyyyyyyyyyyyyy",
"2eexyyyyyyyyyyyyyyyyyyyyyyyyyyyy",
"*yyjyyyyyyyyyyyyyyyyyyyyyyyyyyyy",
"170Vuyyyyyyyyyyyyyyyyyyyyyyyyyyy",
"*80vuuuyyyyyyyyyyyyyyyyyyyyyyyyy",
"180Vuyyyyyyyyyyyyyyyyyyyyyyyyyyy",
"*80Vhuyyyyyyuuyyyyyyyyyyyyyyyyyy",
"*80Vuuuyyyyyuuyyyyyyyyyyyyyyyyyy",
"X80Buguyyyyyuguyyyyyyyyyyyyuhuuy",
"X87Bguuhyyugguuuuyyyyyyyyyyuuhyy",
"X77hVuhuugppuuuuuyyyyyyyyyyuuuyy",
"X7uuuVCCBBBMBCCCVVMBBvvxvxxxxxxx",
"Xuugv0wwwwwwwttttttwwwwwwwwwwwww",
"Xupxyywwwwwwwwwwtttwwwwwwwwwwwww",
" Xjttrwwwwwwww0wwwwwwwwwwwwwwwww",
"  .........XXX..XXXX.........XXX"
};
