/* XPM */
static char *left_11682511206[] = {
/* columns rows colors chars-per-pixel */
"32 32 15 1 ",
"  c #57341F",
". c #747065",
"X c #6D685B",
"o c #95938B",
"O c #878579",
"+ c #8E8C81",
"@ c #7B786E",
"# c #9B9992",
"$ c #999790",
"% c #9A9890",
"& c #97958D",
"* c #96948C",
"= c #97958C",
"- c #A2A09A",
"; c white",
/* pixels */
" .XoOOOOOOOOOOOOOOOOOOOOOOOOOOOO",
" ..oOOOOOOOOOOOOOOOOOOOOOOOOOOOO",
" ..oOOOOOOOOOOOOOOOOOOOOOOOOOOOO",
" ..oOOOOOOOOOOOOOOOOOOOOOOOOOOOO",
" ..oOOOOOOOOOOOOOOOOOOOOOOOOOOOO",
" ..oOOOOOOOOOOOOOOOOOOOOOOOOOOOO",
" ..oOOOOOOOOOOOOOOOOOOOOOOOOOOOO",
" ..o++OOOOOOOOOOOOOOOOOOOOOOOOOO",
" ..o++OOOOOOOOOOOOOOOOOOOOOOOOOO",
" ..o+OOOOOOOOOOOOOOOOOOOOOOOOOOO",
" .@#+OOOOOOOOOOOOOOOOOOOOOOOOOOO",
" @@$+OOOOOOOOOOOOOOOOOOOOOOOOOOO",
" @@%+OOOOOOOOOOOOOOOOOOOOOOOOOOO",
" @@&+OOOOOOOOOOOOOOOOOOOOOOOOOOO",
" @.oOOOOOOOOOOOOOOOOOOOOOOOOOOOO",
" ..oOOOOOOOOOOOOOOOOOOOOOOOOOOOO",
" ..oOOOOOOOOOOOOOOOOOOOOOOOOOOOO",
" ..*OOOOOOOOOOOOOOOOOOOOOOOOOOOO",
" ..*OOOOOOOOOOOOOOOOOOOOOOOOOOOO",
" ..=OOOOOOOOOOOOOOOOOOOOOOOOOOOO",
" ..=OOOOOOOOOOOOOOOOOOOOOOOOOOOO",
" ..*OOOOOOOOOOOOOOOOOOOOOOOOOOOO",
" ..*OOOOOOOOOOOOOOOOOOOOOOOOOOOO",
" ..*++OOOOOOOOOOOOOOOOOOOOOOOOOO",
" ..*++OOOOOOOOOOOOOOOOOOOOOOOOOO",
" ..*+OOOOOOOOOOOOOOOOOOOOOOOOOOO",
" ..*++++OOOOOOOOOOOOOOOOOOOOOOOO",
" ..*++++OOOOOOOOOOOOOOOOOOOOOOOO",
" ..*+++OOOOOOOOOOOOOOOOOOOOOOOOO",
" ..-+++OOOOOOOOOOOOOOOOOOOOOOOOO",
" ..-+++OOOOOOOOOOOOOOOOOOOOOOOOO",
" ..-+OOOOOOOOOOOOOOOOOOOOOOOOOOO"
};
