/* XPM */
static char *right_11682511206[] = {
/* columns rows colors chars-per-pixel */
"32 32 9 1 ",
"  c #878579",
". c #98968E",
"X c #615A4D",
"o c #57341F",
"O c #645E52",
"+ c #8E8C81",
"@ c #A2A09A",
"# c #6D695F",
"$ c white",
/* pixels */
"                            .XXo",
"                            .XXo",
"                            .OXo",
"                            .OOo",
"                            .OOo",
"                            .OOo",
"                            .OOo",
"                            .OOo",
"                            .OOo",
"                            .OOo",
"                            .OOo",
"                            .OOo",
"                         ++ .OOo",
"                         +++.OOo",
"                          ++.OOo",
"                          ++.OOo",
"                          ++@#Oo",
"                        ++++@#Oo",
"                        ++++@##o",
"                        ++++@##o",
"                         +++@##o",
"                           +@##o",
"                           +@#Oo",
"                           +@#Oo",
"                           +.OOo",
"                           +.OOo",
"                            .OOo",
"                            .OOo",
"                            .OOo",
"                        ++  .OOo",
"                        ++  .OOo",
"                           +.OOo"
};
