/* XPM */
static char *right_31682511206[] = {
/* columns rows colors chars-per-pixel */
"32 32 50 1 ",
"  c None",
". c #57331E",
"X c #57341F",
"o c #58341F",
"O c #583520",
"+ c #583521",
"@ c #593521",
"# c #593622",
"$ c #5A3622",
"% c #5A3723",
"& c #5B3723",
"* c #5B3823",
"= c #5A3824",
"- c #5B3924",
"; c #5B3825",
": c #5B3925",
"> c #5C3924",
", c #5C3A25",
"< c #5C3A26",
"1 c #5D3B26",
"2 c #5D3B27",
"3 c #5E3B27",
"4 c #5E3C27",
"5 c #5D3C28",
"6 c #5E3C28",
"7 c #5F3D2A",
"8 c #603F2B",
"9 c #623F2C",
"0 c #63422F",
"q c #644330",
"w c #615A4F",
"e c #645E52",
"r c #6D695F",
"t c #79776C",
"y c #7B766E",
"u c #7C796F",
"i c #827F76",
"p c #878579",
"a c #8E8C81",
"s c #959389",
"d c #98968E",
"f c #9A988F",
"g c #999790",
"h c #9A9890",
"j c #9B9891",
"k c #9B9991",
"l c #9C9991",
"z c #9D9A92",
"x c #9F9C94",
"c c #A2A09A",
/* pixels */
"qqqqq09877<,,,,<<<<,,;;;;++++   ",
"ppppppppppppppppppaaaaaaaaaac+  ",
"ppppppppppppppppppaaaaaaaaaacr@ ",
"pppppppppppppppppppppaaaaaaadrr;",
"pppppppppppppppppppppaaaappadre@",
"ppppppppppppppppppppppaaappadee<",
"ppppppppppppppppppppppppppaadee<",
"ppppppppppppppppppppppppppaadee1",
"ppppppppppppppppppppppppppppdee1",
"ppppppppppppppppppppppppppppdee1",
"ppppppppppppppppppppppppppppdee7",
"ppppppppppppppppppppppppppppdee<",
"ppppppppppppppppppppppppppppdee1",
"ppppppppppppppppppppppppppppfee7",
"ppppppppppppppppppppppppppppjee1",
"ppppppppppppppppppppppppppppjee1",
"ppppppppppppppppppppppppppppfee7",
"ppppppppppppppppppppppppppppdee<",
"ppppppppppppppppppppppppppppdee7",
"ppppppppppppppppppppppppppppdee1",
"ppppppppppppppppppppppppppaadee1",
"ppppppppppppppppppppppppppaadee1",
"pppppppppppppppppppppppppppacee7",
"pppppppppppppppppppppppppppacee<",
"ppppppppaaappppppppppppppaaacwe*",
"ppppaappaaaaappppppppppppaaacww*",
"ppppaaaaaaaaapppppppppppaaacuww@",
"ffjjjjjjjjjjzzzzzcccccccccctttw@",
"yyyyyyyyyyyyyyyyyyyyyyyyyyixttt@",
"yyyyyyyyyyyyyyyyyyyyyyyyyiiictto",
"yyyyyyyyyyyyyyyyyyyyyyyyyiiiiso ",
".............................X  "
};
