/* XPM */
static char *top_left1682511207[] = {
/* columns rows colors chars-per-pixel */
"32 32 42 1 ",
"  c None",
". c #5D3B27",
"X c #5D3C27",
"o c #5E3C27",
"O c #5F3B28",
"+ c #5E3C28",
"@ c #5F3D29",
"# c #5F3E2A",
"$ c #603F2A",
"% c #603F2B",
"& c #613F2B",
"* c #613F2C",
"= c #61402C",
"- c #62402C",
"; c #63412D",
": c #63422E",
"> c #64432F",
", c #654330",
"< c #654431",
"1 c #664431",
"2 c #664532",
"3 c #664633",
"4 c #747065",
"5 c #757166",
"6 c #757266",
"7 c #7F7C72",
"8 c #878579",
"9 c #8C8B7D",
"0 c #8D8B7F",
"q c #8D8B80",
"w c #8E8C81",
"e c #8F8C82",
"r c #908D83",
"t c #96948C",
"y c #97958C",
"u c #97958D",
"i c #99978E",
"p c #9A988F",
"a c #9A9890",
"s c #9D9B92",
"d c #A3A096",
"f c #A2A09A",
/* pixels */
"   oO+====<><<<33333313133333333",
"  oderee888888888888899999999999",
" .7deeee888888888888889999999999",
"+77deee8888888888888899888999998",
"#77see08888888888889999888099888",
"#77fee88888888888889998888888888",
"#77s0e88888888888888888888888888",
"#76pwe88888888888888888888888888",
"#44peeee888888888888888888888888",
"=66p88e0888888888888888888888888",
"#44i88qq888888888888888888888888",
"=46t8888888888888888888888888888",
"=44i8888888888888888888888888888",
"$44t8888888888888888888888888888",
"$44t8888888888888888888888888888",
"$44i8888888888888888888888888888",
"*44y8888888888888888888888888888",
"*54y8888888888888888888888888888",
"*54y8888888888888888888888888888",
"*54y8888888888888888888888888888",
"*54y8888888888888888888888888888",
"*54yqq88888888888888888888888888",
"*54yr900888888888888888888888888",
"*54y0000888888888888888888888888",
"*54yq988888888888888888888888888",
"*54tqq88888888888888888888888888",
"*54tqq88888888888888888888888888",
";44iqq88888888888888888888888888",
"*54tq999988888888888888888888888",
"*44t8899988888888888888888888888",
"*44y8899988888888888888888888888",
"*54y8888888888888888888888888888"
};
