/* XPM */
static char *top_right1682511207[] = {
/* columns rows colors chars-per-pixel */
"32 32 50 1 ",
"  c None",
". c #5A3622",
"X c #5A3722",
"o c #5B3722",
"O c #5B3723",
"+ c #593823",
"@ c #5B3823",
"# c #5B3824",
"$ c #5B3B27",
"% c #5C3924",
"& c #5C3A25",
"* c #5D3B27",
"= c #5D3B28",
"- c #5E3B28",
"; c #5E3D28",
": c #5F3D29",
"> c #603D2A",
", c #603E2A",
"< c #603F2A",
"1 c #613F2B",
"2 c #613F2C",
"3 c #62402C",
"4 c #62402D",
"5 c #63402D",
"6 c #62412D",
"7 c #62412E",
"8 c #63412E",
"9 c #63422E",
"0 c #63422F",
"q c #634330",
"w c #644330",
"e c #644331",
"r c #635D51",
"t c #656054",
"y c #666155",
"u c #6D695E",
"i c #6E6A60",
"p c #878579",
"a c #8C8B7D",
"s c #8C8B7E",
"d c #8D8B7F",
"f c #8D8B80",
"g c #8E8C81",
"h c #98968E",
"j c #99978F",
"k c #9D9A91",
"l c #9E9B92",
"z c #9E9B93",
"x c #9E9C93",
"c c #A3A096",
/* pixels */
"ee000000000001012311:::=&&@o.   ",
"pppppppppppppppppppaggfggfggc.  ",
"pppppppppppppppppppaaggpppggci+ ",
"pppppppppppppppppppppaapppggciu.",
"ppppppppppppppppppppppppppppciu@",
"pfdppppppppppppffdppppppppppcir@",
"pfdppppppppppppfffppppppppppzyr&",
"pppppppppppppdddfpppppppppppxrr$",
"pppppppppppppdddapppppppppppzyr:",
"pppppppppppppddpppppppppppppzrr;",
"ppppppppppppppppppppppppppppkyr:",
"pppppppppppppppppppppppppppphrr:",
"pppppppppppppppppppppppppppphyr:",
"pppppppppppppppppppppppppppphrr:",
"pppppppppppppppppppppppppppphyr0",
"pppppppppppppppppppppppppppphyr:",
"pppppppppppppppppppppppppppphyr0",
"pppppppppppppppppppppppppppphrr:",
"pppppppppppppppppppppppppppphyr2",
"pppppppppppppppppppppppppppphrr0",
"pppppppppppppppppppppppppppphrr0",
"pppppppppppppppppppppppppppphyr0",
"pppppppppppppppppppppppppppphyr2",
"pppppppppppppppppppppppppppphrr0",
"pppppppppppppppppppppppppppphrrq",
"ppppppppppppppppppppppppppffhyr0",
"ppppppppppppppppppppppppppffhyr0",
"ppppppppppppppppppppppppppffhrr0",
"ppppppppppppppppppppppppfffghyr0",
"ppppppppppppppppppppppppfffghyr0",
"ppppppppppppppppppppppppffpphyr0",
"pppppppppppppppppppppppppppphrr0"
};
