/* XPM */
static char *top_31682511206[] = {
/* columns rows colors chars-per-pixel */
"32 32 61 1 ",
"  c None",
". c #57331E",
"X c #57341F",
"o c #58341F",
"O c #593520",
"+ c #593521",
"@ c #593621",
"# c #5A3622",
"$ c #5A3722",
"% c #5A3723",
"& c #5B3723",
"* c #5A3824",
"= c #5B3824",
"- c #5B3924",
"; c #5B3926",
": c #5C3A25",
"> c #5C3A26",
", c #5D3B26",
"< c #5D3B27",
"1 c #5D3B28",
"2 c #5D3C29",
"3 c #5E3C28",
"4 c #5F3D29",
"5 c #5F3E2A",
"6 c #603E29",
"7 c #603E2A",
"8 c #603F2A",
"9 c #603F2B",
"0 c #613F2B",
"q c #613F2C",
"w c #623F2C",
"e c #61402C",
"r c #62402D",
"t c #62412E",
"y c #63412E",
"u c #63422E",
"i c #63422F",
"p c #64422E",
"a c #645E52",
"s c #747065",
"d c #747165",
"f c #757166",
"g c #767267",
"h c #777368",
"j c #777469",
"k c #787469",
"l c #878579",
"z c #8E8C81",
"x c #96948C",
"c c #97958C",
"v c #97958D",
"b c #98968D",
"n c #98968E",
"m c #99978E",
"M c #99978F",
"N c #9B998F",
"B c #9B9990",
"V c #9C9A90",
"C c #9C9A91",
"Z c #9F9C93",
"A c #9F9D93",
/* pixels */
"   &**2444eeqq6eeeeqqq64:*&#o   ",
"  &AzzzzzzzlllllllzzzzzzzzzzB.  ",
" #sAzzzzlllllllllllllllzzzzzBa. ",
"#ssAzzlllllllllllllllllzzzzzBaaO",
"*ssAzzlllllllllllllllllllzzzCaa#",
"&ssAzzlllllllllllllllllllzzzCaa.",
":shBlllllllllllllllllllllllzNaa#",
":shClllllllllllllllllllllllzMaa#",
":ssCllllllllllllllllllllllllvaa*",
"4ssMllllllllllllllllllllllllvaa*",
"4skMllllllllllllllllllllllzzvaa:",
"6skMllllllllllllllllllllllzzMaa4",
"6skMllllllllllllllllllllzzzzvaa3",
"6sjvllllllllllllllllllllzzzzMaa4",
"qskMllllllllllllllllllllzzzzvaa4",
"6sjvlllllllllllllllllllllllzMaa4",
"esjvlllllllllllllllllllllllzvaa4",
"qsjvllllllllllllllllllllllzzMaa4",
"esjvzzllllllllllllllllllllzzMaae",
"esjvzzllllllllllllllllllllllvaa4",
"eskMzzzzllllllllllllllllllllMaa6",
"yskxzzzzllllllllllllllllllllvaa6",
"qskczzzzllllllllllllllllllllMaaq",
"eskczzzlllllllllllllllllllllvaa4",
"yskxzzllllllllllllllllllllllMaa6",
"yskxzzllllllllllllllllllllzzvaaq",
"yskxllzzllllllllllllllllllzzMaa4",
"pskMllzzzlllllllllllllllllzzvaa6",
"pskxllzzzlllllllllllllllllzzMaaq",
"uskxllllllllllllllllllllllllvaa4",
"uskxllllllllllllllllllllllllvaa6",
"eskxllllllllllllllllllllllllMaaq"
};
