/* XPM */
static char *top_bot1682511712[] = {
/* columns rows colors chars-per-pixel */
"32 32 21 1 ",
"  c #63422F",
". c #644330",
"X c #878579",
"o c #97958D",
"O c #96938B",
"+ c #95928A",
"@ c #949189",
"# c #928E87",
"$ c #938F88",
"% c #949289",
"& c #94928A",
"* c #96948C",
"= c #98968D",
"- c #99968E",
"; c #99978E",
": c #99978F",
"> c #9A978E",
", c #9A9891",
"< c #7B766E",
"1 c #57331E",
"2 c white",
/* pixels */
"             ...................",
"XXXXXXXXXXXXXXXXXXXXXXXXXXXXXXXX",
"XXXXXXXXXXXXXXXXXXXXXXXXXXXXXXXX",
"XXXXXXXXXXXXXXXXXXXXXXXXXXXXXXXX",
"XXXXXXXXXXXXXXXXXXXXXXXXXXXXXXXX",
"XXXXXXXXXXXXXXXXXXXXXXXXXXXXXXXX",
"XXXXXXXXXXXXXXXXXXXXXXXXXXXXXXXX",
"XXXXXXXXXXXXXXXXXXXXXXXXXXXXXXXX",
"XXXXXXXXXXXXXXXXXXXXXXXXXXXXXXXX",
"XXXXXXXXXXXXXXXXXXXXXXXXXXXXXXXX",
"XXXXXXXXXXXXXXXXXXXXXXXXXXXXXXXX",
"XXXXXXXXXXXXXXXXXXXXXXXXXXXXXXXX",
"XXXXXXXXXXXXXXXXXXXXXXXXXXXXXXXX",
"XXXXXXXXXXXXXXXXXXXXXXXXXXXXXXXX",
"XXXXXXXXXXXXXXXXXXXXXXXXXXXXXXXX",
"XXXXXXXXXXXXXXXXXXXXXXXXXXXXXXXX",
"XXXXXXXXXXXXXXXXXXXXXXXXXXXXXXXX",
"XXXXXXXXXXXXXXXXXXXXXXXXXXXXXXXX",
"XXXXXXXXXXXXXXXXXXXXXXXXXXXXXXXX",
"XXXXXXXXXXXXXXXXXXXXXXXXXXXXXXXX",
"XXXXXXXXXXXXXXXXXXXXXXXXXXXXXXXX",
"XXXXXXXXXXXXXXXXXXXXXXXXXXXXXXXX",
"XXXXXXXXXXXXXXXXXXXXXXXXXXXXXXXX",
"XXXXXXXXXXXXXXXXXXXXXXXXXXXXXXXX",
"XXXXXXXXXXXXXXXXXXXXXXXXXXXXXXXX",
"XXXXXXXXXXXXXXXXXXXXXXXXXXXXXXXX",
"XXXXXXXXXXXXXXXXXXXXXXXXXXXXXXXX",
"ooOO+O+@@#$$@@@%+&+*o=-;;;:::;>,",
"<<<<<<<<<<<<<<<<<<<<<<<<<<<<<<<<",
"<<<<<<<<<<<<<<<<<<<<<<<<<<<<<<<<",
"<<<<<<<<<<<<<<<<<<<<<<<<<<<<<<<<",
"11111111111111111111111111111111"
};
