/* XPM */
static char *tile0341682508666[] = {
/* columns rows colors chars-per-pixel */
"32 32 11 1 ",
"  c #72751B",
". c #878679",
"X c #8E8C83",
"o c #64604B",
"O c #939189",
"+ c #6C6852",
"@ c #807F72",
"# c #88867D",
"$ c #87867D",
"% c #8D8B83",
"& c white",
/* pixels */
"                  ............  ",
"                 X............X ",
"                 X............X ",
"                 X............X ",
"                 X............X ",
"                 X............X ",
"                 X............X ",
"                 X............X ",
"                 X............X ",
"                 X............X ",
"                 X............X ",
"                 X............X ",
"                 X............X ",
"                 oOOOOOOOOOOOOo ",
"                  ooooooo++++o  ",
"                                ",
"                  @@@@@@@@@@@@  ",
"                 #@@@@@@@@@@@@$ ",
"                 #@@@@@@@@@@@@# ",
"                 #@@@@@@@@@@@@# ",
"                 #@@@@@@@@@@@@# ",
"                 #@@@@@@@@@@@@# ",
"                 #@@@@@@@@@@@@# ",
"                 #@@@@@@@@@@@@# ",
"                 #@@@@@@@@@@@@# ",
"                 #@@@@@@@@@@@@# ",
"                 #@@@@@@@@@@@@# ",
"                 #@@@@@@@@@@@@# ",
"                 #@@@@@@@@@@@@# ",
"                 o%%%%%%%%%%%%o ",
"                  oooooooooooo  ",
"                                "
};
