/* XPM */
static char *tile0381682508407[] = {
/* columns rows colors chars-per-pixel */
"32 32 18 1 ",
"  c #72751B",
". c #7F8124",
"X c #787B21",
"o c #686F16",
"O c #7F8226",
"+ c #656C17",
"@ c #838275",
"# c #88867D",
"$ c #807F72",
"% c #8A887F",
"& c #8F8D85",
"* c #68644F",
"= c #8E8C83",
"- c #848279",
"; c #6C6852",
": c #64604B",
"> c #8D8B83",
", c white",
/* pixels */
"                                ",
"                                ",
"                                ",
"                                ",
"                                ",
"   .                            ",
"    .                           ",
"    XX                          ",
"   oXX                 XOO      ",
"  .Xoo                XXO       ",
"  XX                  XX+       ",
"  oo             XO   X+        ",
"                 +OX  +XO       ",
"                  XX  XX+       ",
"                  +X+XX+        ",
"                   ++XX+        ",
"  @@@@@@@@@@@@       X+#$$$$$$  ",
" %@@@@@@@@@@@@%       #$$$$$$$# ",
" %@@@@@@@@@@@@%    #$$$$$$$$$$# ",
" %@@@@@@@@@@@@%  #$$$$$$$$$$$$# ",
" %@@@@@@@@@@@@%  #$$$$$$$$$$$$# ",
" %@@@@@@@@@@@@%  #$$$$$$$$$$$$# ",
" &&&&@@@@@@@@@%  #$$$$$$$$$$$$# ",
" ****&&&@@@@@@%  #$$$$$$$$$$$$# ",
"     ***&@@@@@%  #$$$$$$$$$$$$# ",
" =@@@   *&@@@@-  #$$$$$$$$$$$$# ",
" =@@@@@  *&@@@-  #$$$$$$$$$$$$# ",
" =@@@@@@  *%@@-  #$$$$$$$$$$$$# ",
" =@@@@@@@XO*%-#OO#$$$$$$$$$$$$# ",
" ;&&&&&&& OO::XO :>>>>>>>>>>>>: ",
"  ;****** XX XX+  ::::::::::::  ",
"          ++ XX+                "
};
