/* XPM */
static char *result[] = {
/* columns rows colors chars-per-pixel */
"32 32 22 1 ",
"  c #72751B",
". c #7C7B6E",
"X c #878679",
"o c #848279",
"O c #838279",
"+ c #8A8A7D",
"@ c #8C8A80",
"# c #8C8A81",
"$ c #8D8B82",
"% c #8D8C83",
"& c #88867D",
"* c #8D8C82",
"= c #8E8C83",
"- c #89877F",
"; c #605C48",
": c #939189",
"> c #6C6852",
", c #64604B",
"< c #7F8124",
"1 c #787B21",
"2 c #686F16",
"3 c white",
/* pixels */
"  ............    XXXXXXXXXXXX  ",
" o............O  +XXXXXXXXXXXX@ ",
" o............o  #XXXXXXXXXXXX$ ",
" o............o  $XXXXXXXXXXXX% ",
" &............o  *XXXXXXXXXXXX% ",
" &............o  %XXXXXXXXXXXX% ",
" &............o  =XXXXXXXXXXXX% ",
" &............o  =XXXXXXXXXXXX% ",
" &............o  =XXXXXXXXXXXX% ",
" &...........--  =XXXXXXXXXXXX$ ",
" &.......---;;;  =XXXXXXXXXXXX$ ",
" &......o;;;     ::XXXXXXXXXXX$ ",
" &......o;       >>::XXXXXXXXX$ ",
" ,-----<<     <    >>:::::::::, ",
"  ,;;;;;<11 1<       >>>>>>>>,  ",
"     1<<212112                  ",
"      <1122112                  ",
"      211  12                   ",
"       21                       ",
"                                ",
"                                ",
"                                ",
"                                ",
"                                ",
"                                ",
"                                ",
"                        1<<     ",
"                         <11    ",
"                         211    ",
"                          22    ",
"                                ",
"                                "
};
