/* XPM */
static char *result[] = {
/* columns rows colors chars-per-pixel */
"32 32 10 1 ",
"  c #72751B",
". c #7F8226",
"X c #787B21",
"o c #656C17",
"O c #807F72",
"+ c #87867D",
"@ c #88867D",
"# c #8D8B83",
"$ c #64604B",
"% c white",
/* pixels */
"                                ",
"                                ",
"                                ",
"                                ",
"                                ",
"                                ",
"                                ",
"                                ",
"                                ",
"                                ",
"             .                  ",
"      X..   .                   ",
"       .XX ..                   ",
"       oXX XX                   ",
"        oXoXo                   ",
"         o o                    ",
"   OOOOOOOOOOO                  ",
"  OOOOOOOOOOOO+                 ",
" @OOOOOOOOOOOO@                 ",
" @OOOOOOOOOOOO@                 ",
" @OOOOOOOOOOOO@                 ",
" @OOOOOOOOOOOO@                 ",
" @OOOOOOOOOOOO@                 ",
" @OOOOOOOOOOOO@                 ",
" @OOOOOOOOOOOO@                 ",
" @OOOOOOOOOOOO@                 ",
" @OOOOOOOOOOOO@                 ",
" @OOOOOOO#####                  ",
" @OOOOO##$$$$$    .XX           ",
" $#####$$          XXX          ",
"  $$$$$             oo          ",
"                                "
};
