/* XPM */
static char *tile0441682508407[] = {
/* columns rows colors chars-per-pixel */
"32 32 12 1 ",
"  c #72751B",
". c #807F72",
"X c #88867D",
"o c #87867D",
"O c #848377",
"+ c #86847A",
"@ c #86847B",
"# c #87857C",
"$ c #87867C",
"% c #64604B",
"& c #8D8B83",
"* c white",
/* pixels */
"  ............    ............  ",
" X............o  O............+ ",
" X............X  @............# ",
" X............X  #............o ",
" X............X  $............o ",
" X............X  o............o ",
" X............X  X............o ",
" X............X  X............o ",
" X............X  X............o ",
" X............X  X............# ",
" X............X  X............# ",
" X............X  X............# ",
" X............X  X............# ",
" %&&&&&&&&&&&&%  %&&&&&&&&&&&&% ",
"  %%%%%%%%%%%%    %%%%%%%%%%%%  ",
"                                ",
"                                ",
"                                ",
"                                ",
"                                ",
"                                ",
"                                ",
"                                ",
"                                ",
"                                ",
"                                ",
"                                ",
"                                ",
"                                ",
"                                ",
"                                ",
"                                "
};
