/* XPM */
static char *tile0551682508407[] = {
/* columns rows colors chars-per-pixel */
"32 32 14 1 ",
"  c #72751B",
". c #7F8226",
"X c #787B21",
"o c #656C17",
"O c #807F72",
"+ c #86847A",
"@ c #86847B",
"# c #87857C",
"$ c #87867D",
"% c #87867C",
"& c #88867D",
"* c #64604B",
"= c #8D8B83",
"- c white",
/* pixels */
"                                ",
"                                ",
"                                ",
"                                ",
"                                ",
"                                ",
"                                ",
"                                ",
"       .                        ",
"X..   .                         ",
" .XX ..                         ",
" oXX XX                         ",
"  oX Xo                         ",
"   o o                          ",
"                                ",
"                                ",
"                   OOOOOOOOOO   ",
"                  OOOOOOOOOOOO+ ",
"                 @OOOOOOOOOOOO# ",
"                 #OOOOOOOOOOOO$ ",
"                 %OOOOOOOOOOOO$ ",
"                 $OOOOOOOOOOOO$ ",
"                 &OOOOOOOOOOOO$ ",
"                 &OOOOOOOOOOOO$ ",
"                 &OOOOOOOOOOOO$ ",
"                 &OOOOOOOOOOOO# ",
"                 &OOOOOOOOOOOO# ",
"                 *=OOOOOOOOOOO# ",
"                  *=OOOOOOOOOO# ",
"                   *==========* ",
"                    **********  ",
"                                "
};
