/* XPM */
static char *result[] = {
/* columns rows colors chars-per-pixel */
"32 32 13 1 ",
"  c #72751B",
". c #807F72",
"X c #656C17",
"o c #88867D",
"O c #87867D",
"+ c #86847A",
"@ c #87857C",
"# c #87867C",
"$ c #64604B",
"% c #8D8B83",
"& c #7F8226",
"* c #787B21",
"= c white",
/* pixels */
"  ...........XX     ..........  ",
" o............O    ...........+ ",
" o............o   ............@ ",
" o............o  @............O ",
" o............o  #............O ",
" o............o  O............O ",
" o............o  o............O ",
" o............o  o............O ",
" o............o  o............O ",
" o............o  $%%%%%.......@ ",
" o............o   $$$$$@......@ ",
" o.......%%%%%         %......@ ",
" o......%$$$$$         &*.....@ ",
" $%%%%%%$         &*  *&X%%%%%$ ",
"  $$$$$$          X** ** $$$$$  ",
"                   X***X        ",
"                   X**X         ",
"                    X*          ",
"                                ",
"                                ",
"                                ",
"                                ",
"                                ",
"                                ",
"                                ",
"                                ",
"                                ",
"                                ",
"                                ",
"                                ",
"                                ",
"                                "
};
