/* XPM */
static char *result[] = {
/* columns rows colors chars-per-pixel */
"32 32 25 1 ",
"  c #72751B",
". c #807F72",
"X c #7C7B6E",
"o c #87867D",
"O c #88867D",
"+ c #787B21",
"@ c #807F73",
"# c #7F8226",
"$ c #828077",
"% c #838279",
"& c #838178",
"* c #838278",
"= c #64604B",
"- c #89877E",
"; c #656C17",
": c #848279",
"> c #8D8B83",
", c #87857C",
"< c #5F5B46",
"1 c #89877F",
"2 c #605C48",
"3 c #88877E",
"4 c #88867E",
"5 c #898780",
"6 c white",
/* pixels */
"  ............       XXXXXXXXX  ",
" o............O     ++XXXXXXXX@ ",
" O............O    #+XXXXXXXXX$ ",
" O............O   ++%XXXXXXXXX& ",
" O............##+ ++%XXXXXXXXX* ",
" =-+#--.......O#++;+XXXXXXXXXX% ",
"  ==#+=-......O;++%XXXXXXXXXXX: ",
"    ++ =-.....O ;%XXXXXXXXXXXX: ",
"    ;;  =-....O  %XXXXXXXXXXXX: ",
"         =O...O  &XXXXXXXXXXXX: ",
" ....     O...o  &XXXXXXXXXXXX: ",
" .....    O...o  &XXXXXXXXXXXX: ",
" >.....   >>..,  <1XXXXXXXXXXX1 ",
" =>>>>>   ==>>>   <O111111111O  ",
"  =====     ===    <<<<2222===  ",
"                                ",
"      3.......    ..........    ",
"     3........4  o............  ",
"    3.........4  o............O ",
"  33..........4  o............O ",
" 3............4  o............O ",
" 3............4  o............O ",
" 3............O  o............O ",
" 3............O  o............O ",
" 3............O  o.........>>>= ",
" 3............O  o........>===  ",
" 3............O  o.......>=     ",
" 3............o  o......>=      ",
" 3............,  o.....>=       ",
" =511111111111=  =>>>>>=        ",
"  ============    =====         ",
"                                "
};
