/* XPM */
static char *tile0611682508407[] = {
/* columns rows colors chars-per-pixel */
"32 32 18 1 ",
"  c #72751B",
". c #8E8C83",
"X c #878679",
"o c #6C6852",
"O c #939189",
"+ c #7F8226",
"@ c #787B21",
"# c #656C17",
"$ c #807F72",
"% c #87857C",
"& c #88867D",
"* c #86847A",
"= c #87867D",
"- c #8D8B83",
"; c #7F8124",
": c #64604B",
"> c #686F16",
", c white",
/* pixels */
"      .XXXXXXX                  ",
"      .XXXXXXX.                 ",
"      oOXXXXXX.                 ",
"       oOOXXXX.                 ",
"  XX.   ooOOOX.            +@   ",
" .XXXX.   oooO.       +@  @+#   ",
" .XXXXX.     oo       #@@ @@    ",
" .XXXXXX.              #@@@#    ",
" .XXXXXXXXXX.          #@@#     ",
" .XXXXXXXXXXX.          #@      ",
" .XXXXXXXXXXXX.                 ",
" .XXXXXXXXXXXX.                 ",
" .XXXXXXXXXXXX.                 ",
" oOOOOOOOOOOOOo                 ",
"  oooooooooooo                  ",
"                                ",
"  $$$$$$$$$$$             %$$$  ",
" &$$$$$$$$$$$$           %$$$$* ",
" &$$$$$$$$$$$$&         %$$$$$% ",
" &$$$$$$$$$$$$&        %$$$$$$= ",
" &$$$$$$$$$$$$&   $$$$$$$$$$$$= ",
" &$$$$$$$$$$$$&  =$$$$$$$$$$$$= ",
" &$$$$$$$$$$$$&  &$$$$$$$$$$$$= ",
" &$$$$$$$$$$$$&  &$$$$$$$$$$$$= ",
" &$$$$$$$$$$$$&  &$$$$$$$$$$$$= ",
" &$$$$$$$$$$$$&  &$$$$$$$$$$$$% ",
"  -;--$$$$$$$$&  &$$$$$$$$$$$$% ",
"  ::;:-$$$$$$$&  &$$$$$$$$$$$$% ",
"    @@:-$$$$$$&  &$$$$$$$$$$$$% ",
"  > @@ :------:  :------------: ",
" ;@ >>  ::::::    ::::::::::::  ",
" @@                             "
};
