/* XPM */
static char *tile0471682508407[] = {
/* columns rows colors chars-per-pixel */
"32 32 21 1 ",
"  c #72751B",
". c #7C7B6E",
"X c #878679",
"o c #848279",
"O c #838279",
"+ c #8A8A7D",
"@ c #8C8A80",
"# c #8C8A81",
"$ c #8D8B82",
"% c #939189",
"& c #8D8C83",
"* c #6C6852",
"= c #89877F",
"- c #605C48",
"; c #7F8226",
": c #787B21",
"> c #8E8C83",
", c #656C17",
"< c #686F16",
"1 c #7F8124",
"2 c white",
/* pixels */
"  ............    XXXXXXXXXXXX  ",
" o............O  +XXXXXXXXXXXX@ ",
" o............o  #XXXXXXXXXXXX$ ",
" o............o  %%%%XXXXXXXXX& ",
" o............o  ****%XXXXXXXX& ",
" o............o       XXXXXXXX& ",
" o........=====       %XXXXXXX& ",
" o.......=----;;      *%%XXXXX& ",
" o......:-  ::;  >XXX  **%XXXX& ",
" o.....=-;; ::,  >XXXX   *%XXX$ ",
" o...==- ;::,,   >XXXXXX  *%%%$ ",
"  ===--  ,::     >XXXXXXX  ***  ",
"  ---     ,      >XXXXXXX       ",
"                 *%%%%%%%:      ",
"                  ******::      ",
"                        :<      ",
"                        <       ",
"                                ",
"                                ",
"                                ",
"                                ",
"                                ",
"     ::                         ",
"     <11                        ",
"      1::   :                   ",
"      <:: 1:                    ",
"      <:::11                    ",
"       <<::<                    ",
"         <<                     ",
"                                ",
"                                ",
"                                "
};
