/* XPM */
static char *tile0431682508407[] = {
/* columns rows colors chars-per-pixel */
"32 32 21 1 ",
"  c #72751B",
". c #807F72",
"X c #88867D",
"o c #7F8226",
"O c #787B21",
"+ c #656C17",
"@ c #64604B",
"# c #8D8B83",
"$ c #878679",
"% c #8A8A7D",
"& c #8C8A80",
"* c #8C8A81",
"= c #8D8B82",
"- c #8D8C83",
"; c #8D8C82",
": c #8E8C83",
"> c #7F8124",
", c #6C6852",
"< c #939189",
"1 c #686F16",
"2 c white",
/* pixels */
"  ............                  ",
" X............X    oO           ",
" X............oO  Oo+           ",
" X............+OO OO            ",
" X............X+OOO+            ",
" X............X+OO+             ",
" X............X +O              ",
" X............X                 ",
" X............X                 ",
" X............X                 ",
" X............X                 ",
" X............X                 ",
" X............X                 ",
" @############@                 ",
"  @@@@@@@@@@@@                  ",
"                                ",
"  $$$$$$$$$$$$                  ",
" %$$$$$$$$$$$$&                 ",
" *$$$$$$$$$$$$=                 ",
" =$$$$$$$$$$$$-                 ",
" ;$$$$$$$$$$$$-                 ",
" -$$$$$$$$$$$$-                 ",
" :$$$$$$$$$$$$-                 ",
" :$$$$$$$$$>$$-                 ",
" :$$$$$$$$$$>$-                 ",
" :$$$$$$$$$$OO,                 ",
" :$$$$$$<<<1OO                  ",
" :$$$$$:,,>O11                  ",
" :$$$$$:  OO                    ",
" ,<<<<<,  11                    ",
"  ,,,,,                         ",
"                                "
};
