/* XPM */
static char *tile0411682508407[] = {
/* columns rows colors chars-per-pixel */
"32 32 25 1 ",
"  c #72751B",
". c #878679",
"X c #807F72",
"o c #8C8A80",
"O c #8A8A7D",
"+ c #87867D",
"@ c #88867D",
"# c #8D8B82",
"$ c #8C8A81",
"% c #8D8C83",
"& c #8D8C82",
"* c #8E8C83",
"= c #6C6852",
"- c #8D8B83",
"; c #64604B",
": c #7F8124",
"> c #87857C",
", c #787B21",
"< c #939189",
"1 c #686F16",
"2 c #89877F",
"3 c #88877E",
"4 c #88867E",
"5 c #828175",
"6 c white",
/* pixels */
"  ............    XXXXXXXXXXXX  ",
" o............O  +XXXXXXXXXXXX@ ",
" #............$  @XXXXXXXXXXXX@ ",
" %............#  @XXXXXXXXXXXX@ ",
" %............&  @XXXXXXXXXXXX@ ",
" %............%  @XXXXXXXXXXXX@ ",
" %............*  @XXXXXXXXXXXX@ ",
" %............*  @XXXXXXXXXXXX@ ",
" %............*  @XXXXXXXXXXXX@ ",
" =%...........*  @XXXXXXXXXXXX- ",
"  =%..........*  @XXXXXXXXXXX-; ",
"   %..........*  +XXXXXXXXXX-;  ",
":: %..........*  >XXXXXXXXX-;   ",
" :,,<<<<<<<<<<;  ;---------;    ",
" 1,1==========    ;;;;;;;;;     ",
"  11                            ",
"  XXXXXXXXXX      XXXXXX2  XXX  ",
" +XXXXXXXXXXXX   3XXXXXX2 XXXX4 ",
" +XXXXXXXXXXXX@  3XXXXX2;XXXXX4 ",
" +XXXXXXXXXXXX@  3,,X22; XXXXX4 ",
" +XXXXXXXXXXXX@  ::22;;  XXXXX4 ",
" +XXXXXXXXXXXX@ ,,1;;   XXXXXX4 ",
" +XXXXXXXXXXXX@ ,,1    XXXXXXX@ ",
" +XXXXXXXXXXXX@ ,1   XXXXXXXXX@ ",
" +XXXXXXXXXXXX@    XXXXXXXXXXX@ ",
" +XXXXXXXXXXXX@  3XXXXXXXXXXXX@ ",
" +XXXXXXXXXXXX@  3XXXXXXXXXXXX@ ",
" +XXXXXXXXXXX--  3XXXXXXXXXXXX+ ",
" +XXXXXXXX--,::  35XXXXXXXXXXX> ",
" ;--------;;;:,, ;------------; ",
"  ;;;;;;;;   1,,  ;;;;;;;;;;;;  ",
"              1,                "
};
