/* XPM */
static char *tile0571682508407[] = {
/* columns rows colors chars-per-pixel */
"32 32 20 1 ",
"  c #72751B",
". c #878679",
"X c #807F72",
"o c #8E8C83",
"O c #88867D",
"+ c #64604B",
"@ c #8D8B83",
"# c #6C6852",
"$ c #939189",
"% c #787B21",
"& c #7F8124",
"* c #686F16",
"= c #7C7B6E",
"- c #89877F",
"; c #848279",
": c #605C48",
"> c #838279",
", c #7F8226",
"< c #656C17",
"1 c white",
/* pixels */
"  ............    XXXXXXXXXXXX  ",
" o............o  OXXXXXXXXXXXXO ",
" o............o  OXXXXXXXXXXXXO ",
" o............o  OXXXXXXXXXXXXO ",
" o............o  OXXXXXXXXXXXXO ",
" o............o  OXXXXXXXXXXXXO ",
" o............o  OXXXXXXXXXXXXO ",
" o............o  OXXXXXXXXXXXXO ",
" o............o  OXXXXXXXXXXXXO ",
" o............o  +@@@XXXXXXXXXO ",
" o............#   +++@XXXXXXXXO ",
" O.......$%&&#       +@XXXXXXXO ",
" O......$##&%%        +@XXXXXXO ",
"  $$$$$$#  *%%         +@@@@@@+ ",
"  ######    **          ++++++  ",
"                                ",
"                   =====-       ",
"                  ;====-:   ==> ",
"           ,,     ;===-:   ===; ",
"            ,%%   ,,--:    ===; ",
"            <%%  %,:::    ;===; ",
"             << %%%      ;====; ",
"                %%<     ;=====; ",
"                <<   =========; ",
"                    ;=========; ",
"                    ;=========; ",
"                    -=========; ",
"                    :-========; ",
"                     :-=======; ",
"                      :-------: ",
"                       :::::::  ",
"                                "
};
