/* XPM */
static char *tile0521682508407[] = {
/* columns rows colors chars-per-pixel */
"32 32 9 1 ",
"  c #72751B",
". c #807F72",
"X c #88867D",
"o c #8D8B83",
"O c #64604B",
"+ c #7F8226",
"@ c #787B21",
"# c #656C17",
"$ c white",
/* pixels */
"  ............                  ",
" X............X                 ",
" X............X                 ",
" X............X                 ",
" X............X                 ",
" X............X                 ",
" X............X                 ",
" X............X                 ",
" X............X                 ",
" X............X                 ",
" ooooo........X                 ",
"   OOOo.......X                 ",
"      Oo......X                 ",
"       Ooooooo                  ",
"        OOOOOO                  ",
"                                ",
"                                ",
"                                ",
"                                ",
"                                ",
"                                ",
"                                ",
"                                ",
"            ++                  ",
"             +@@   ++           ",
"             #@@  @+            ",
"              ## @@@            ",
"                 @@#            ",
"                 ##             ",
"                                ",
"                                ",
"                                "
};
