/* XPM */
static char *tile0591682508407[] = {
/* columns rows colors chars-per-pixel */
"32 32 19 1 ",
"  c #72751B",
". c #878679",
"X c #8E8C83",
"o c #8A887F",
"O c #6C6852",
"+ c #939189",
"@ c #64604B",
"# c #807F72",
"$ c #848377",
"% c #86847A",
"& c #86847B",
"* c #87857C",
"= c #87867D",
"- c #87867C",
"; c #7F8226",
": c #787B21",
"> c #656C17",
", c #8D8B83",
"< c white",
/* pixels */
"  ............                  ",
" X............X                 ",
" X............X                 ",
" X............X                 ",
" o............X                 ",
" o............X                 ",
" o............X                 ",
" o............X                 ",
" X............X                 ",
" X............X                 ",
" X............X                 ",
" X............X                 ",
" X............X                 ",
" O++++++++++++O                 ",
"  @@@@@@@@@@@@                  ",
"                                ",
"  ############                  ",
" $############%                 ",
" &############*                 ",
" *############=                 ",
" -############=          ;:     ",
" =############=     ;:  :;>     ",
" =############=     >:: ::      ",
" =,,,,########=      >:::>      ",
" @@@@@,#######=      >::>       ",
"      @,######;;:     >:        ",
"       @,,,###*;::              ",
"        @@@,##*>::              ",
"           @,,@ >>              ",
"            @@                  ",
"                                ",
"                                "
};
