/* XPM */
static char *result[] = {
/* columns rows colors chars-per-pixel */
"32 32 28 1 ",
"  c #72751B",
". c #807F72",
"X c #7C7B6E",
"o c #88867D",
"O c #848279",
"+ c #64604B",
"@ c #87867D",
"# c #87857C",
"$ c #787B21",
"% c #7F8226",
"& c #86847B",
"* c #838178",
"= c #8D8B83",
"- c #656C17",
"; c #89877F",
": c #605C48",
"> c #878679",
", c #818074",
"< c #8E8C84",
"1 c #8E8D84",
"2 c #8E8C83",
"3 c #8D8C83",
"4 c #7F8124",
"5 c #8D8B82",
"6 c #939189",
"7 c #686F16",
"8 c #6C6852",
"9 c white",
/* pixels */
"  ............    XXXXXXXXXXXX  ",
" o............o  OXXXXXXXXXXXXO ",
" o............o  OXXXXXXXXXXXXO ",
" o............o  OXXXXXXXXXXXXO ",
" ++@..........o  OXXXXXXXXXXXXO ",
"  @...........o  OXXXXXXXXXXXXO ",
"  @...........o  OXXXXXXXXXXXXO ",
" @............o  OXXXXXXXXXXXXO ",
" @............o  OXXXXXXXXXXXXO ",
" #............o  OXXXXXXXXXXXXO ",
" #............o  OXXXXXXXXXXXXO ",
" #...........$%  OX$$XXXXXXXXXO ",
" &............%% *$$XXXXXXXXXXo ",
" +============-$$+$$;;;;;;;;;=  ",
"  ++++++++++++-$$ --+++:::::++  ",
"               --               ",
"  ............    >>>>>>>>>>>>  ",
" ,............o  <>>>>>>>>>>>>< ",
" #............o  <>>>>>>>>>>>>< ",
" @............o  <>>>>>>>>>>>>< ",
" @............o  1>>>>>>>>>>>>< ",
" @............o  1>>>>>>>>>>>>< ",
" @............o  1>>>>>>>>>>>>2 ",
" @............o  1>>>>>>>>>>>>2 ",
" @............o  1>>>>>>>>>>>>2 ",
" @............o  1>>>>>>>>>>>>2 ",
" @............o  1>>>>>>>>>>>>2 ",
" @............o  1>>>>$>>>>>>>3 ",
" @............#  1>>>44>>>>>>>5 ",
" +============+  +66$4766666668 ",
"  ++++++++++++    +8$$88888888  ",
"                    77          "
};
