/* XPM */
static char *tile0481682508407[] = {
/* columns rows colors chars-per-pixel */
"32 32 27 1 ",
"  c #72751B",
". c #807F72",
"X c #878679",
"o c #88867D",
"O c #87867D",
"+ c #8A8A7D",
"@ c #8C8A80",
"# c #8C8A81",
"$ c #8D8B82",
"% c #8D8C82",
"& c #8D8C83",
"* c #8E8C83",
"= c #64604B",
"- c #87857C",
"; c #7F8226",
": c #939189",
"> c #6C6852",
", c #8D8B83",
"< c #656C17",
"1 c #787B21",
"2 c #7C7B6E",
"3 c #84827A",
"4 c #848279",
"5 c #605C48",
"6 c #89877F",
"7 c #7E7D71",
"8 c white",
/* pixels */
"  ............    XXXXXXXXXXXX  ",
" o............O  +XXXXXXXXXXXX@ ",
" o............o  #XXXXXXXXXXXX$ ",
" o............o  $XXXXXXXXXXXX$ ",
" o............o  %XXXXXXXXXXXX$ ",
" o............o  &XXXXXXXXXXXX$ ",
" o............o  *XXXXXXXXXXXX$ ",
" o............o  *XXXXXXXXXXXX$ ",
" o............o  *XXXXXXXXXXXX& ",
" o............o  *XXXXXXXXXXXX$ ",
" =o...........o  *XXXXXXXXXXXX$ ",
"  =o..........O  *XXXXXXXXXXXX$ ",
"   =o.........-  *XXXXXX;XXXX:> ",
"    =,,,,,,,,,=  >:::::;<::::>  ",
"     ==========   >>>>11<>>>>   ",
"                      1<        ",
"  222  3222222      ..........  ",
" 42222 32222224   ............o ",
" 42222256222224  o............o ",
" 422222 5662224  o............o ",
" 422222  556666  o............o ",
" 4222222   5555  o............o ",
" 42222222        o............o ",
" 4222222222      o............o ",
" 422222222222    o............o ",
" 42222222222224  o............o ",
" 42222222222224  o............o ",
" 42222222222224  =,...........o ",
" 42222222222274   =,,,........o ",
"  6666666666666    ===,,,,,,,,, ",
"  555555555555=       ========= ",
"                                "
};
