/* XPM */
static char *tile0601682508407[] = {
/* columns rows colors chars-per-pixel */
"32 32 20 1 ",
"  c #72751B",
". c #807F72",
"X c #88867D",
"o c #787B21",
"O c #7F8124",
"+ c #64604B",
"@ c #686F16",
"# c #7F8226",
"$ c #8D8B83",
"% c #656C17",
"& c #848279",
"* c #7C7B6E",
"= c #87857C",
"- c #838279",
"; c #86847A",
": c #87867D",
"> c #87867C",
", c #89877F",
"< c #605C48",
"1 c white",
/* pixels */
"                  ............  ",
"                 X............X ",
"                 X............X ",
"                 X............X ",
"                 X............X ",
"                 X............X ",
"                 X............X ",
"  oOO            +X...........X ",
"   Ooo            +X..........X ",
"   @oo           o##..........X ",
"    @@          oo#$..........X ",
"                oo%+X.........X ",
"           o#   o%  +X........X ",
"           %#o  %o#  $$$$$$$$$+ ",
"            oo  oo%  +++++++++  ",
"            %o%oo%              ",
"         &***%%oo%  =.........  ",
"        &*****-o%  =..........; ",
"       &******&   =...........= ",
"   &**********&  =............: ",
"  &***********&  >............: ",
" &************&  :............: ",
" &************&  X............: ",
" &************&  X............: ",
" &************&  X............: ",
" &************&  X............= ",
" &************,  X............= ",
" &***********,<  X............= ",
" &**********,<   +$...........= ",
" <,,,,,,,,,,<     +$$$$$$$$$$$+ ",
"  <<<<<<<<<<       +++++++++++  ",
"                                "
};
