/* XPM */
static char *tile0511682508407[] = {
/* columns rows colors chars-per-pixel */
"32 32 18 1 ",
"  c #72751B",
". c #807F72",
"X c #88867D",
"o c #787B21",
"O c #7F8226",
"+ c #656C17",
"@ c #64604B",
"# c #8D8B83",
"$ c #7C7B6E",
"% c #848377",
"& c #828077",
"* c #838178",
"= c #838279",
"- c #838278",
"; c #848279",
": c #89877F",
"> c #605C48",
", c white",
/* pixels */
"  .......                       ",
" X.......                       ",
" X........                      ",
" X............X        oO    OO ",
" X............X         OO  oO  ",
" X............X         oo oo+  ",
" X............X         ++ oo+  ",
" X............X            ++   ",
" X............X                 ",
" X............X                 ",
" X............X                 ",
" X............X                 ",
" X............X                 ",
" @############@                 ",
"oOO@@@@@@@@@@@                  ",
"o                               ",
"+ .$$$$$$$$$                    ",
" %$$$$$$$$$$$                   ",
" &$$$$$$$$$$$$*                 ",
" *$$$$$$$$$$$$=                 ",
" -$$$$$$$$$$$$=                 ",
" =$$$$$$$$$$$$=                 ",
" ;$$$$$$$$$$$$=                 ",
" ;$$$$$$$$$$$$=                 ",
" ;$$$$$$$$$$$$=                 ",
" ;$$$$$$$$$$$$*                 ",
" ;$$$$$$$$$$$$*                 ",
"   $$$$$$$$$$$*                 ",
"    $$$$$$$$$$*                 ",
"     :::::::::>                 ",
"     >>>>>>>>>                  ",
"                                "
};
