/* XPM */
static char *tile0561682508407[] = {
/* columns rows colors chars-per-pixel */
"32 32 14 1 ",
"  c #72751B",
". c #88867D",
"X c #807F72",
"o c #8D8B83",
"O c #64604B",
"+ c #787B21",
"@ c #7F8124",
"# c #686F16",
"$ c #878679",
"% c #8E8C83",
"& c #7F8226",
"* c #656C17",
"= c #6C6852",
"- c white",
/* pixels */
"     .XXXXXXXX    XXXXXXXXXXXX  ",
"    .XXXXXXXXX.  .XXXXXXXXXXXX. ",
"   .XXXXXXXXXX.  .XXXXXXXXXXXX. ",
" .XXXXXXXXXXXX.  .XXXXXXXXXXXX. ",
" .XXXXXXXXXXXX.  .XXXXXXXXXXXX. ",
" .XXXXXXXXXXXX.  .XXXXXXXXXXXX. ",
" .XXXXXXXXXXXX.  .oXXXXXXXXXXX. ",
" .XXXXXXXXXXXX.  OOoXXXXXXXXXX. ",
" .XXXXXXXXXXXX.    OooXXXXXXXX. ",
" .XXXXXXXXXXXX.     OOooooXXXX. ",
" .XXXXXXXXXXXOO       OOOOoXXX. ",
" .XXXXXXXXXXO             O.XX. ",
" .XXXXXXXXXO             + .XX. ",
" OooooooooO             @@ OooO ",
"  OOOOOOOO             +@#  OO  ",
"                       ++       ",
"  $$$$$$$$$            ##       ",
" %$$$$$$$$$%   &                ",
" %$$$$$$$$$%   ++               ",
" %$$$$$$$$$&&+ *+               ",
" %$$$$$$$$==&++** &&+           ",
" %$$$$$$$+& *++ *++&            ",
" %$$$$$$= &++*+ +++             ",
" %$$$$$=  *++ **++*             ",
" %$$$$%    *+  ***              ",
" %$$$$%     * ++                ",
" %$$$==       &*                ",
" %$$=         *           @@+   ",
" ===                     ++@    ",
"                         ++#    ",
"                         ##     ",
"                                "
};
