/* XPM */
static char *tile0501682508407[] = {
/* columns rows colors chars-per-pixel */
"32 32 12 1 ",
"  c #72751B",
". c #807F72",
"X c #7C7B6E",
"o c #88867D",
"O c #787B21",
"+ c #7F8124",
"@ c #686F16",
"# c #7F8226",
"$ c #656C17",
"% c #64604B",
"& c #8D8B83",
"* c white",
/* pixels */
"                  ......XXXXX.  ",
"                 o............o ",
"   O++           o............o ",
"    +OO          o............o ",
"    @OO          o............o ",
"     @@          o............o ",
"                 o............o ",
"                 o............o ",
"                 o............o ",
"                 o............o ",
"              #  o............  ",
"             #   o........O#.   ",
"            OO   o.........##   ",
"            OO$  %&&&&&&&&&OOO  ",
"            $$O#  %%%%%%%%%$OO$O",
"              OO            $$OO",
"              $$  ............OO",
"                 o............O$",
"                 o............o ",
"                 o............o ",
"                 o............o ",
"                 o............o ",
"                 o............o ",
"                  &&&&&.......o ",
"                  %%%%%&......o ",
"                 o...  %&.....o ",
"                 o....  %&....o ",
"                 o...... %&&..o ",
"                 o......  %%..o ",
"                 %&&&&&&    &&% ",
"                  %%%%%%    %%  ",
"                                "
};
