/* XPM */
static char *result[] = {
/* columns rows colors chars-per-pixel */
"32 32 16 1 ",
"  c #72751B",
". c #807F72",
"X c #88867D",
"o c #64604B",
"O c #8D8B83",
"+ c #89877F",
"@ c #605C48",
"# c #7C7B6E",
"$ c #848377",
"% c #828076",
"& c #828077",
"* c #838178",
"= c #838279",
"- c #838278",
"; c #848279",
": c white",
/* pixels */
"  ............                  ",
" X............X                 ",
" X............X                 ",
" X............X                 ",
" X............X                 ",
" X............X                 ",
" X............X                 ",
" X............X                 ",
" X............X                 ",
" X............X                 ",
" X............X                 ",
" X............X                 ",
" X............X                 ",
" oOOOOOO+++++Oo                 ",
"  ooooo@@@@@@@                  ",
"                                ",
"  .###########                  ",
" $############%                 ",
" &############*                 ",
" *############=                 ",
" -############=                 ",
" =############=                 ",
" ;############=                 ",
" ;############=                 ",
" ;############=                 ",
" ;############*                 ",
" ;############*                 ",
" ;############*                 ",
" ;############*                 ",
" @++++++++++++@                 ",
"  @@@@@@@@@@@@                  ",
"                                "
};
