/* XPM */
static char *result[] = {
/* columns rows colors chars-per-pixel */
"32 32 14 1 ",
"  c #72751B",
". c #807F72",
"X c #88867D",
"o c #64604B",
"O c #8D8B83",
"+ c #7F8226",
"@ c #787B21",
"# c #656C17",
"$ c #7C7B6E",
"% c #87867D",
"& c #848279",
"* c #605C48",
"= c #89877F",
"- c white",
/* pixels */
"                  .......       ",
"                 X.......       ",
"                 X........      ",
"                 X...........   ",
"                 X............  ",
"                 X............X ",
"                 X............X ",
"                 X............X ",
"                 X............X ",
"                 X............X ",
"                 X............X ",
"                 X............X ",
"                 X............X ",
"                 oOOOOOOOOOOOOo ",
"              +@@ oooooooooooo  ",
"               @@@              ",
"                ##.$$$$$$$$$..  ",
"                 X$$$$$$$$$$$.% ",
"                 &$$$$$$$$$$$$X ",
"                 &$$$$$$$$$$$$& ",
"                 &$$$$$$$$$$$$& ",
"                 &$$$$$$$$$$$$& ",
"                 &$$$$$$$$$$$$& ",
"                 &$$$$$$$$$$$$& ",
"                 &$$$$$$$$$$$$& ",
"                 &$$$$$$$$$$$$& ",
"                 &$$$$$$$$$$$$& ",
"                 &$$$$$$$$$$$$& ",
"                 &$$$$$$$$$$$$& ",
"                 *============* ",
"                  ************  ",
"                                "
};
