/* XPM */
static char *tile0371682508407[] = {
/* columns rows colors chars-per-pixel */
"32 32 10 1 ",
"  c #72751B",
". c #7F8124",
"X c #787B21",
"o c #686F16",
"O c #88867D",
"+ c #807F72",
"@ c #8D8B83",
"# c #64604B",
"$ c #605C48",
"% c white",
/* pixels */
"                                ",
"                                ",
"                                ",
"                                ",
"                                ",
"                                ",
"                                ",
"                                ",
"                ..   .          ",
"                 .. .           ",
"                 XXoX           ",
"                 oXoo           ",
"  X..             o             ",
"   .XX                          ",
"   oXX                          ",
"    oo                          ",
"      O+++++++    ++++++++++++  ",
"     O++++++++O  O++++++++++++O ",
"    O+++++++++O  O++++++++++++O ",
" O++++++++++++O  O++++++++++++O ",
" O++++++++++++O  O++++++++++++O ",
" O++++++++++++O  O++++++++++++O ",
" O++++++++++++O  O++++++++++++O ",
" O++++++++++++O  O++++++++++++O ",
" O++++++++++++O  O++++++++++++O ",
" O++++++++++++O  O++++++++++++O ",
" O++++++++++++O  O++++++++++++O ",
" O++++++++++++O  @@@@@++++++++O ",
" O++++++++++++O   ####@+++++++O ",
" #@@@@@@@@@@@@#       #@@@@@@@# ",
"  ##$$$$$#####         #######  ",
"                                "
};
