/* XPM */
static char *result[] = {
/* columns rows colors chars-per-pixel */
"32 32 9 1 ",
"  c #72751B",
". c #787B21",
"X c #7F8226",
"o c #656C17",
"O c #807F72",
"+ c #8D8B83",
"@ c #88867D",
"# c #64604B",
"$ c white",
/* pixels */
"                                ",
"                                ",
"                                ",
"                           ..   ",
"                          X.    ",
"                         ..o    ",
"                     XX. ..o    ",
"                      X..o.o    ",
"                      o..oo     ",
"                       oo       ",
"                                ",
"                                ",
"                                ",
"                                ",
"                                ",
"                                ",
"  OOOOO+  OOOO    OOOOOOOOOOOO  ",
" @OOOO+#  OOOO@  @OOOOOOOOOOOO@ ",
" @OOOO#   OOOO@  @OOOOOOOOOOOO@ ",
" +++++#  OOOOO@  @OOOOOOOOOOOO@ ",
" #####  OOOOOO@  @OOOOOOOOOOO++ ",
"       OOOOOOO@  @OOOOOOOOOO+## ",
"  OOOOOOOOOOOO@  @OOOOOOOOOO    ",
" @OOOOOOOOOOOO@  @OOOOOOOOOO    ",
" @OOOOOOOOOOOO@  @OOOOOOOOOO    ",
" @OOOOOOOOOOOO@  @OOOOOOOOOOO   ",
" @OOOOOOOO++++#  @OOOOOOOOOOOO  ",
" @OOOOOOO+####   #+OOOOOOOOOOO@ ",
" @OOOOOO@#        #+OOOOOOOOOO@ ",
" #+++++++          #++++++++++# ",
"  #######           ##########  ",
"                                "
};
