/* XPM */
static char *tile0401682508407[] = {
/* columns rows colors chars-per-pixel */
"32 32 20 1 ",
"  c #72751B",
". c #807F72",
"X c #88867D",
"o c #676455",
"O c #7F8226",
"+ c #787B21",
"@ c #64604B",
"# c #8D8B83",
"$ c #656C17",
"% c #7C7B6E",
"& c #88867E",
"* c #838279",
"= c #848279",
"- c #7F8124",
"; c #686F16",
": c #87867D",
"> c #89877F",
", c #87857C",
"< c #605C48",
"1 c white",
/* pixels */
"  ............    ............  ",
" X............X  X............X ",
" X............X  X............X ",
" X............X  X............X ",
" X............X  X..........Xoo ",
" X............X  X...........X  ",
" X............X  X...........X  ",
" X............X  X............X ",
" X............X  X............X ",
" X............X  X............X ",
" X............X  X............X ",
" X............X  X............X ",
" X..........O+@  X............X ",
" @#####O+##+O$   @############# ",
"  @@@@@$++@++     @@@@@@@@@@@@@ ",
"        $+++$                   ",
"  ......$++$         %%%%%%%%%  ",
" &.......$+         %%%%%%%%%%* ",
" &...........      %%%%%%%%%%%* ",
" &............X  =%%%%%%%%%%%%* ",
" &............X  =%%%%%%%%%%%%* ",
" &............=  +%%%%%%%%%%%%* ",
" X............= --%%%%%%%%%%%%* ",
" X............=+-;%%%%%%%%%%%%* ",
" X............=++=%%%%%%%%%%%%* ",
" X............X;;=%%%%%%%%%%%%* ",
" X............X  =%%%%%%%%%%%%* ",
" :............X  =%%%%%%%%%%%># ",
" ,............X  X%%%%%%%%%%>@@ ",
" @############@  @#>>>>>>>>>@   ",
"  @@@@@@@@@@@@    @@<<<<<<<@    ",
"                                "
};
