/* XPM */
static char *tile0581682508407[] = {
/* columns rows colors chars-per-pixel */
"32 32 11 1 ",
"  c #72751B",
". c #7C7B6E",
"X c #848279",
"o c #89877F",
"O c #605C48",
"+ c #7F8124",
"@ c #787B21",
"# c #686F16",
"$ c #7F8226",
"% c #656C17",
"& c white",
/* pixels */
"                  ............  ",
"                 X............X ",
"                 X............X ",
"                 X............X ",
"                 X............X ",
"                 X............X ",
"                 X............X ",
"                 X...........oX ",
"                 X..........oOO ",
"                 X.........oO   ",
"                 X....oooooO    ",
"                 X...oOOOO      ",
"                 X..oO   ....o  ",
"                 OooO   .....o  ",
"                  OO +  oooooO  ",
"                    @@  ++@OO   ",
"                 @  @# @@+      ",
"                  +@#  @@#      ",
"                  @@  @@#@+     ",
"                   #  @#@@#     ",
"                      ##@#      ",
"                                ",
"                                ",
"           $                    ",
"    @$$   $                     ",
"     $@@ $$                     ",
"     %@@ @@                     ",
"      %@ @%                     ",
"       % %                      ",
"                                ",
"                                ",
"                                "
};
